HIERARCHY
ROOT hip
{
	OFFSET 0.000000 0.000000 0.000000 
	CHANNELS 6 Xposition Yposition Zposition Xrotation Zrotation Yrotation
	JOINT abdomen
	{
		OFFSET 0.000000 3.402643 0.000000 
		CHANNELS 3 Xrotation Zrotation Yrotation
		JOINT chest
		{
			OFFSET 0.000000 8.438565 -0.680529 
			CHANNELS 3 Xrotation Zrotation Yrotation
			JOINT neck
			{
				OFFSET 0.000000 10.207942 -0.272212 
				CHANNELS 3 Xrotation Zrotation Yrotation
				JOINT head
				{
					OFFSET 0.000000 3.130431 0.000000 
					CHANNELS 3 Xrotation Zrotation Yrotation
					End Site
					{
						OFFSET 0.000000 3.130435 0.000000 
					}
				}
			}
			JOINT lCollar
			{
				OFFSET 3.470700 6.669187 -0.816635 
				CHANNELS 3 Yrotation Zrotation Xrotation
				JOINT lShldr
				{
					OFFSET 3.198488 0.000000 0.000000 
					CHANNELS 3 Zrotation Yrotation Xrotation
					JOINT lForeArm
					{
						OFFSET 10.139888 0.000000 0.000000 
						CHANNELS 3 Yrotation Zrotation Xrotation
						JOINT lHand
						{
							OFFSET 8.370511 0.000000 0.000000 
							CHANNELS 3 Zrotation Yrotation Xrotation
							End Site
							{
								OFFSET 4.083176 0.000000 0.000000 
							}
						}
					}
				}
			}
			JOINT rCollar
			{
				OFFSET -3.470700 6.669187 -0.816635 
				CHANNELS 3 Yrotation Zrotation Xrotation
				JOINT rShldr
				{
					OFFSET -3.198488 0.000000 0.000000 
					CHANNELS 3 Zrotation Yrotation Xrotation
					JOINT rForeArm
					{
						OFFSET -10.139888 0.000000 0.000000 
						CHANNELS 3 Yrotation Zrotation Xrotation
						JOINT rHand
						{
							OFFSET -8.370511 0.000000 0.000000 
							CHANNELS 3 Zrotation Yrotation Xrotation
							End Site
							{
								OFFSET -4.083176 0.000000 0.000000 
							}
						}
					}
				}
			}
		}
	}
	JOINT lThigh
	{
		OFFSET 5.308129 -1.633274 1.361059 
		CHANNELS 3 Xrotation Zrotation Yrotation
		JOINT lShin
		{
			OFFSET -2.041588 -20.007561 0.000000 
			CHANNELS 3 Xrotation Zrotation Yrotation
			JOINT lFoot
			{
				OFFSET 0.000000 -19.190928 -1.224953 
				CHANNELS 3 Xrotation Yrotation Zrotation
				End Site
				{
					OFFSET 0.000000 -2.449906 4.627600 
				}
			}
		}
	}
	JOINT rThigh
	{
		OFFSET -5.308129 -1.633274 1.361059 
		CHANNELS 3 Xrotation Zrotation Yrotation
		JOINT rShin
		{
			OFFSET 2.041588 -20.007561 0.000000 
			CHANNELS 3 Xrotation Zrotation Yrotation
			JOINT rFoot
			{
				OFFSET 0.000000 -19.190928 -1.224953 
				CHANNELS 3 Xrotation Yrotation Zrotation
				End Site
				{
					OFFSET 0.000000 -2.449906 4.627600 
				}
			}
		}
	}
}
MOTION
Frames: 6
Frame Time: 0.033333
0.706331 50.429543 37.966881 -3.007817 3.938566 48.463066 0.000000 0.000000 0.000000 35.105324 -1.141622 -2.344257 -13.780654 -5.369484 -3.737252 1.279129 1.214067 -5.977906 -3.521967 9.154817 6.304141 -83.925819 -25.178116 -11.794948 -7.508878 -0.932210 20.925283 3.294811 15.953424 -8.667512 3.089181 -14.089146 8.026228 94.694908 25.145584 -20.556004 5.213019 -4.991498 59.301144 3.684613 -6.076525 -8.265952 2.684713 12.802418 14.288701 13.042992 -3.857093 -3.585078 1.207793 0.364733 -7.771425 2.505367 -8.966949 -18.518206 17.000706 1.783662 -9.847552 -5.661191 -0.120272 -0.190912 
0.589619 50.384510 38.137882 -3.290457 4.100957 48.790939 0.000000 0.000000 0.000000 35.003845 -2.478392 -2.346202 -14.183084 -4.908875 -4.175789 0.302055 0.922509 -6.084765 -3.521967 9.154817 6.304141 -82.942284 -24.274576 -15.652647 -6.374462 -1.954645 33.593189 5.105213 19.462019 -8.669888 3.089181 -14.089146 8.026228 97.629097 24.090565 -22.075848 5.571719 -5.491974 64.631775 2.897467 -10.125361 -8.682943 2.723158 13.357067 14.769340 13.588779 -4.023093 -4.195990 1.208531 0.369087 -7.686636 2.742768 -8.660008 -18.571304 17.447861 1.841488 -10.106923 -6.314393 -0.106152 -0.335121 
0.440067 50.316944 38.311031 -3.639404 4.246061 48.989594 0.000000 0.000000 0.000000 35.160835 -3.278615 -2.298983 -15.222250 -4.839903 -4.303104 -0.264876 1.077500 -6.270622 -3.521967 9.154817 6.304141 -83.233803 -23.587769 -18.378973 -6.362733 -1.571641 39.988430 9.020798 21.727957 -8.393332 3.089181 -14.089146 8.026228 99.537369 23.164043 -19.859367 5.993102 -5.105998 61.784328 1.093887 -8.378283 -8.584890 2.546664 14.125957 15.465906 14.703536 -4.226849 -4.844995 1.236116 0.372565 -7.788744 2.818699 -8.226808 -18.471079 18.133259 1.783518 -10.359406 -7.102637 -0.066552 -0.629071 
0.256519 50.153942 38.416607 -3.232872 4.089909 49.624451 0.000000 0.000000 0.000000 34.355488 -4.096440 -2.869359 -15.742987 -4.254728 -4.455722 -1.309152 0.835174 -6.045558 -3.521967 9.154817 6.304141 -84.110268 -22.743692 -18.170937 -7.292365 -0.238466 37.323013 10.160692 20.676748 -8.318540 3.089181 -14.089146 8.026228 101.177162 22.066565 -17.371874 6.723624 -4.584167 58.213322 -1.245315 -4.104648 -8.409217 1.754511 14.571657 16.039558 15.361255 -4.784026 -5.911872 0.705910 0.326523 -6.328138 1.627305 -8.390235 -18.619030 20.087013 1.705555 -10.603312 -8.549187 -0.066567 -0.611557 
0.081640 50.049408 38.585827 -3.136000 3.948876 50.025349 0.000000 0.000000 0.000000 33.884968 -4.476394 -2.977978 -15.728613 -4.129282 -4.249761 -2.617442 0.864660 -5.820974 -3.521967 9.154817 6.304141 -85.007378 -22.198151 -16.943245 -8.314103 1.065927 31.963205 11.410148 17.327957 -8.346931 3.089181 -14.089146 8.026228 102.416992 21.361288 -14.675510 7.513572 -4.197412 55.675926 -2.640701 -2.615989 -8.437056 1.122233 15.399756 16.896362 16.443233 -5.301445 -7.132791 0.785886 0.285459 -5.862803 0.985526 -8.152557 -18.541580 21.296999 1.617509 -10.970090 -9.497241 -0.087105 -0.548434 
-0.081259 49.953487 38.759335 -3.857445 3.963359 49.692520 0.000000 0.000000 0.000000 34.456131 -4.147702 -2.066449 -16.803953 -4.666460 -3.988425 -2.812872 1.029529 -5.977524 -3.521967 9.154817 6.304141 -85.904778 -22.271257 -13.095968 -9.202234 2.004745 24.991421 11.177896 14.107957 -8.473957 3.089181 -14.089146 8.026228 103.104774 21.189928 -11.886472 8.456365 -4.316620 53.866413 -3.828503 -3.021066 -8.540225 0.534806 16.712675 17.726870 18.991728 -5.253656 -8.644352 1.218230 0.312585 -6.261582 0.983468 -7.404753 -18.224699 22.143259 1.518989 -10.853114 -10.034073 -0.041924 -0.668501 
